<svg width="133" height="133" viewBox="0 0 133 133" fill="none" xmlns="http://www.w3.org/2000/svg">
<path d="M66.4999 105.292C87.924 105.292 105.292 87.9241 105.292 66.5C105.292 45.076 87.924 27.7083 66.4999 27.7083C45.0759 27.7083 27.7083 45.076 27.7083 66.5C27.7083 87.9241 45.0759 105.292 66.4999 105.292Z" stroke="#0074AE" stroke-width="11.0833"/>
<path d="M33.0559 17.3787C29.2965 18.3855 25.8684 20.3645 23.1164 23.1165C20.3643 25.8685 18.3854 29.2966 17.3785 33.056M99.9438 17.3787C103.703 18.3855 107.131 20.3645 109.883 23.1165C112.635 25.8685 114.614 29.2966 115.621 33.056M66.4999 44.3333V65.1146C66.4999 65.8793 67.1205 66.5 67.8853 66.5H83.1249" stroke="#0074AE" stroke-width="11.0833" stroke-linecap="round"/>
</svg>
