<svg width="123" height="122" viewBox="0 0 123 122" fill="none" xmlns="http://www.w3.org/2000/svg">
<path d="M43.073 82.6042L68.7438 75.2333C70.4383 74.725 71.9006 73.8557 73.1308 72.6256C74.3609 71.3954 75.2285 69.9348 75.7334 68.2438L83.1043 42.5729C83.3584 41.641 83.1263 40.8141 82.4078 40.0922C81.6894 39.3704 80.8625 39.1383 79.9272 39.3958L54.2563 46.7667C52.5619 47.275 51.1013 48.1443 49.8745 49.3744C48.6477 50.6046 47.7785 52.0652 47.2668 53.7562L39.8959 79.4271C39.6418 80.359 39.8756 81.1859 40.5974 81.9078C41.3193 82.6296 42.1445 82.8617 43.073 82.6042ZM61.5001 68.625C59.382 68.625 57.5825 67.8845 56.1016 66.4036C54.6206 64.9226 53.8785 63.1214 53.8751 61C53.8717 58.8786 54.6139 57.0791 56.1016 55.6015C57.5893 54.1239 59.3888 53.3818 61.5001 53.375C63.6114 53.3682 65.4126 54.1104 66.9037 55.6015C68.3948 57.0926 69.1353 58.8921 69.1251 61C69.1149 63.1079 68.3744 64.9091 66.9037 66.4036C65.4329 67.8981 63.6317 68.6386 61.5001 68.625ZM61.5001 111.833C54.4681 111.833 47.8598 110.498 41.6751 107.828C35.4904 105.157 30.1105 101.536 25.5355 96.9646C20.9605 92.393 17.3395 87.0131 14.6724 80.825C12.0054 74.6369 10.6701 68.0286 10.6668 61C10.6634 53.9714 11.9986 47.3631 14.6724 41.175C17.3463 34.9869 20.9673 29.607 25.5355 25.0354C30.1037 20.4638 35.4836 16.8428 41.6751 14.1723C47.8666 11.5019 54.4749 10.1667 61.5001 10.1667C68.5253 10.1667 75.1336 11.5019 81.3251 14.1723C87.5166 16.8428 92.8965 20.4638 97.4647 25.0354C102.033 29.607 105.656 34.9869 108.333 41.175C111.01 47.3631 112.344 53.9714 112.333 61C112.323 68.0286 110.988 74.6369 108.328 80.825C105.667 87.0131 102.046 92.393 97.4647 96.9646C92.8829 101.536 87.503 105.159 81.3251 107.833C75.1471 110.507 68.5388 111.84 61.5001 111.833Z" fill="#868686"/>
</svg>
