<svg width="122" height="122" viewBox="0 0 122 122" fill="none" xmlns="http://www.w3.org/2000/svg">
<path d="M58.7938 107.319C59.438 107.776 60.208 108.021 60.9975 108.021C61.7869 108.021 62.5569 107.776 63.2011 107.319L61 104.208L63.2062 107.319L63.2468 107.289L63.3536 107.213L63.7603 106.918C64.1127 106.664 64.6126 106.292 65.2598 105.804C72.8136 100.103 79.9439 93.8614 86.5946 87.1283C92.4303 81.191 98.3625 74.2523 102.856 66.8916C107.329 59.5716 110.563 51.5196 110.563 43.4472C110.563 33.8652 107.589 26.3774 102.327 21.2941C97.0917 16.2412 90.0258 13.9792 82.6042 13.9792C73.8354 13.9792 66.0935 18.2136 61 24.7406C55.9065 18.2136 48.1595 13.9792 39.3958 13.9792C23.7392 13.9792 11.4375 27.3941 11.4375 43.4472C11.4375 51.5196 14.6756 59.5665 19.1438 66.8916C23.6375 74.2523 29.5698 81.191 35.4054 87.1334C42.4957 94.3067 50.1299 100.921 58.2398 106.918L58.6464 107.213L58.7532 107.289L58.7938 107.319Z" fill="#868686"/>
</svg>
