<svg width="98" height="98" viewBox="0 0 98 98" fill="none" xmlns="http://www.w3.org/2000/svg">
<path d="M86.7709 49H36.3213M18.5139 49H11.2292M18.5139 49C18.5139 46.6391 19.4518 44.3749 21.1212 42.7056C22.7905 41.0362 25.0547 40.0983 27.4156 40.0983C29.7765 40.0983 32.0406 41.0362 33.71 42.7056C35.3794 44.3749 36.3172 46.6391 36.3172 49C36.3172 51.3609 35.3794 53.625 33.71 55.2944C32.0406 56.9638 29.7765 57.9017 27.4156 57.9017C25.0547 57.9017 22.7905 56.9638 21.1212 55.2944C19.4518 53.625 18.5139 51.3609 18.5139 49ZM86.7709 75.9786H63.2999M63.2999 75.9786C63.2999 78.34 62.3598 80.6067 60.69 82.2765C59.0203 83.9463 56.7556 84.8843 54.3942 84.8843C52.0333 84.8843 49.7691 83.9424 48.0997 82.273C46.4304 80.6036 45.4925 78.3394 45.4925 75.9786M63.2999 75.9786C63.2999 73.6172 62.3598 71.3545 60.69 69.6847C59.0203 68.015 56.7556 67.0769 54.3942 67.0769C52.0333 67.0769 49.7691 68.0148 48.0997 69.6841C46.4304 71.3535 45.4925 73.6177 45.4925 75.9786M45.4925 75.9786H11.2292M86.7709 22.0214H74.0922M56.2848 22.0214H11.2292M56.2848 22.0214C56.2848 19.6605 57.2226 17.3964 58.892 15.727C60.5614 14.0576 62.8255 13.1197 65.1864 13.1197C66.3554 13.1197 67.5129 13.35 68.5929 13.7973C69.6729 14.2447 70.6543 14.9004 71.4808 15.727C72.3074 16.5536 72.9631 17.5349 73.4105 18.6149C73.8578 19.6949 74.0881 20.8524 74.0881 22.0214C74.0881 23.1904 73.8578 24.3479 73.4105 25.4279C72.9631 26.5079 72.3074 27.4892 71.4808 28.3158C70.6543 29.1424 69.6729 29.7981 68.5929 30.2455C67.5129 30.6928 66.3554 30.9231 65.1864 30.9231C62.8255 30.9231 60.5614 29.9852 58.892 28.3158C57.2226 26.6464 56.2848 24.3823 56.2848 22.0214Z" stroke="#868686" stroke-width="6.125" stroke-miterlimit="10" stroke-linecap="round"/>
</svg>
