<svg width="122" height="122" viewBox="0 0 122 122" fill="none" xmlns="http://www.w3.org/2000/svg">
<path fill-rule="evenodd" clip-rule="evenodd" d="M12.8101 39.7669C10.1667 44.5808 10.1667 50.4012 10.1667 62.0319V69.7688C10.1667 89.5938 10.1667 99.5113 16.1244 105.672C22.0821 111.833 31.6642 111.833 50.8334 111.833H71.1667C90.336 111.833 99.9232 111.833 105.876 105.672C111.828 99.5113 111.833 89.5988 111.833 69.7688V62.037C111.833 50.4013 111.833 44.5859 109.19 39.7669C106.557 34.9428 101.733 31.9538 92.0897 25.9657L81.9231 19.6572C71.731 13.3285 66.6324 10.1667 61.0001 10.1667C55.3677 10.1667 50.2742 13.3285 40.0771 19.6572L29.9104 25.9657C20.2673 31.9538 15.4483 34.9428 12.8101 39.7669ZM57.1876 91.5C57.1876 92.5111 57.5893 93.4809 58.3042 94.1958C59.0192 94.9108 59.9889 95.3125 61.0001 95.3125C62.0112 95.3125 62.9809 94.9108 63.6959 94.1958C64.4109 93.4809 64.8126 92.5111 64.8126 91.5V76.25C64.8126 75.2389 64.4109 74.2691 63.6959 73.5542C62.9809 72.8392 62.0112 72.4375 61.0001 72.4375C59.9889 72.4375 59.0192 72.8392 58.3042 73.5542C57.5893 74.2691 57.1876 75.2389 57.1876 76.25V91.5Z" fill="#868686"/>
</svg>
