<svg width="150" height="150" viewBox="0 0 150 150" fill="none" xmlns="http://www.w3.org/2000/svg">
<path d="M75 12.5C89.9184 12.5 104.226 18.4263 114.775 28.9752C125.324 39.5242 131.25 53.8316 131.25 68.75C131.25 87.9625 120.775 103.688 109.738 114.969C104.223 120.544 98.2058 125.599 91.7625 130.069L89.1 131.881L87.85 132.712L85.4937 134.213L83.3938 135.494L80.7938 137.006C79.029 138.014 77.032 138.543 75 138.543C72.968 138.543 70.971 138.014 69.2062 137.006L66.6062 135.494L63.3563 133.494L62.1562 132.712L59.5937 131.006C52.6427 126.303 46.1681 120.932 40.2625 114.969C29.225 103.681 18.75 87.9625 18.75 68.75C18.75 53.8316 24.6763 39.5242 35.2252 28.9752C45.7742 18.4263 60.0816 12.5 75 12.5ZM75 50C72.5377 50 70.0995 50.485 67.8247 51.4273C65.5498 52.3695 63.4828 53.7506 61.7417 55.4917C60.0006 57.2328 58.6195 59.2998 57.6773 61.5747C56.735 63.8495 56.25 66.2877 56.25 68.75C56.25 71.2123 56.735 73.6505 57.6773 75.9253C58.6195 78.2002 60.0006 80.2672 61.7417 82.0083C63.4828 83.7494 65.5498 85.1305 67.8247 86.0727C70.0995 87.015 72.5377 87.5 75 87.5C79.9728 87.5 84.7419 85.5246 88.2583 82.0083C91.7746 78.4919 93.75 73.7228 93.75 68.75C93.75 63.7772 91.7746 59.0081 88.2583 55.4917C84.7419 51.9754 79.9728 50 75 50Z" fill="white"/>
</svg>
