<svg width="123" height="123" viewBox="0 0 123 123" fill="none" xmlns="http://www.w3.org/2000/svg">
<g clip-path="url(#clip0_85_655)">
<path d="M19.8939 110L25.8515 89.2677H11.5533V77.3525H29.1877L35.9793 53.7606H21.6812V41.8454H39.4347L45.3923 21.2322H59.0947L53.1371 41.8454H74.5844L80.4228 21.2322H94.1252L88.2868 41.8454H102.585V53.7606H84.8314L78.0398 77.3525H92.3379V89.2677H74.5844L68.746 110H55.0436L60.882 89.2677H39.5539L33.5963 110H19.8939ZM42.8901 77.3525H64.3374L71.129 53.7606H49.6818L42.8901 77.3525Z" fill="#038ED3"/>
<path d="M107.557 43.9792C110.061 41.4123 114.409 41.4125 116.914 43.9792H116.915C119.504 46.568 119.523 50.76 116.914 53.3366L116.915 53.3376L105.311 64.9401L111.801 93.0749L112.032 94.0768L111.308 94.8073L106.836 99.3102L105.041 101.118L103.861 98.8591L92.7334 77.5505L82.8232 87.4597L83.8301 94.3669L83.9658 95.2975L83.2979 95.9597L79.9053 99.321L78.1553 101.054L76.9619 98.8991L71.6396 89.2819L61.9932 83.9304L59.8516 82.7429L61.5674 80.9948L64.9277 77.57L65.5928 76.8932L66.5312 77.0319L73.5293 78.0681L83.3486 68.2487L62.0293 57.03L59.7812 55.8474L61.584 54.0573L66.0869 49.5866L66.8164 48.862L67.8193 49.0925L95.9512 55.5827L107.557 43.9792Z" fill="#038ED3" stroke="white" stroke-width="3.72825"/>
</g>
<defs>
<clipPath id="clip0_85_655">
<rect width="123" height="123" fill="white"/>
</clipPath>
</defs>
</svg>
