<svg width="122" height="122" viewBox="0 0 122 122" fill="none" xmlns="http://www.w3.org/2000/svg">
<g clip-path="url(#clip0_87_708)">
<path d="M0 7.625C0 3.40742 3.40742 0 7.625 0H114.375C118.593 0 122 3.40742 122 7.625C122 11.8426 118.593 15.25 114.375 15.25V106.75C118.593 106.75 122 110.157 122 114.375C122 118.593 118.593 122 114.375 122H72.4375V110.562C72.4375 104.248 67.3145 99.125 61 99.125C54.6855 99.125 49.5625 104.248 49.5625 110.562V122H7.625C3.40742 122 0 118.593 0 114.375C0 110.157 3.40742 106.75 7.625 106.75V15.25C3.40742 15.25 0 11.8426 0 7.625ZM22.875 26.6875V34.3125C22.875 36.4094 24.5906 38.125 26.6875 38.125H34.3125C36.4094 38.125 38.125 36.4094 38.125 34.3125V26.6875C38.125 24.5906 36.4094 22.875 34.3125 22.875H26.6875C24.5906 22.875 22.875 24.5906 22.875 26.6875ZM57.1875 22.875C55.0906 22.875 53.375 24.5906 53.375 26.6875V34.3125C53.375 36.4094 55.0906 38.125 57.1875 38.125H64.8125C66.9094 38.125 68.625 36.4094 68.625 34.3125V26.6875C68.625 24.5906 66.9094 22.875 64.8125 22.875H57.1875ZM83.875 26.6875V34.3125C83.875 36.4094 85.5906 38.125 87.6875 38.125H95.3125C97.4094 38.125 99.125 36.4094 99.125 34.3125V26.6875C99.125 24.5906 97.4094 22.875 95.3125 22.875H87.6875C85.5906 22.875 83.875 24.5906 83.875 26.6875ZM26.6875 45.75C24.5906 45.75 22.875 47.4656 22.875 49.5625V57.1875C22.875 59.2844 24.5906 61 26.6875 61H34.3125C36.4094 61 38.125 59.2844 38.125 57.1875V49.5625C38.125 47.4656 36.4094 45.75 34.3125 45.75H26.6875ZM53.375 49.5625V57.1875C53.375 59.2844 55.0906 61 57.1875 61H64.8125C66.9094 61 68.625 59.2844 68.625 57.1875V49.5625C68.625 47.4656 66.9094 45.75 64.8125 45.75H57.1875C55.0906 45.75 53.375 47.4656 53.375 49.5625ZM87.6875 45.75C85.5906 45.75 83.875 47.4656 83.875 49.5625V57.1875C83.875 59.2844 85.5906 61 87.6875 61H95.3125C97.4094 61 99.125 59.2844 99.125 57.1875V49.5625C99.125 47.4656 97.4094 45.75 95.3125 45.75H87.6875ZM78.1562 91.5C81.3254 91.5 83.9465 88.9027 83.1602 85.8289C80.6344 75.9402 71.675 68.625 61 68.625C50.325 68.625 41.3418 75.9402 38.8398 85.8289C38.0535 88.8789 40.6984 91.5 43.8438 91.5H78.1562Z" fill="#0074AE"/>
</g>
<defs>
<clipPath id="clip0_87_708">
<rect width="122" height="122" fill="white"/>
</clipPath>
</defs>
</svg>
