<svg width="122" height="122" viewBox="0 0 122 122" fill="none" xmlns="http://www.w3.org/2000/svg">
<g clip-path="url(#clip0_87_717)">
<path d="M1.72754 64.0381C0.575846 66.5797 0 69.2207 0 71.9609V76.25C0 77.7591 0.198568 79.2087 0.595703 80.5986C0.992839 81.9886 1.58854 83.2793 2.38281 84.4707C3.17708 85.6621 4.13021 86.7344 5.24219 87.6875C6.35417 88.6406 7.58529 89.4349 8.93555 90.0703C9.53125 91.4603 10.3057 92.7113 11.2588 93.8232C12.2119 94.9352 13.304 95.8685 14.5352 96.623C15.7663 97.3776 17.0768 97.9932 18.4668 98.4697C19.8568 98.9463 21.3262 99.1647 22.875 99.125C25.6152 99.125 28.1569 98.4499 30.5 97.0996C32.8431 95.7493 34.7096 93.8828 36.0996 91.5H78.2754C79.6654 93.8828 81.5319 95.7493 83.875 97.0996C86.2181 98.4499 88.7598 99.125 91.5 99.125C94.2402 99.125 96.7819 98.4499 99.125 97.0996C101.468 95.7493 103.335 93.8828 104.725 91.5H114.375C115.447 91.5 116.44 91.3014 117.354 90.9043C118.267 90.5072 119.061 89.971 119.736 89.2959C120.411 88.6208 120.967 87.8066 121.404 86.8535C121.841 85.9004 122.04 84.9075 122 83.875V68.625C122 65.4876 121.404 62.529 120.213 59.749C119.021 56.9691 117.393 54.5465 115.328 52.4814C113.263 50.4163 110.84 48.7682 108.061 47.5371C105.281 46.306 102.302 45.7103 99.125 45.75H96.9209L77.3818 26.2109C76.3096 25.1387 75.0785 24.3245 73.6885 23.7686C72.2985 23.2126 70.8291 22.9147 69.2803 22.875H15.25V30.5H16.9775L1.72754 64.0381ZM91.5 91.5C90.4277 91.5 89.4349 91.3014 88.5215 90.9043C87.6081 90.5072 86.8138 89.971 86.1387 89.2959C85.4635 88.6208 84.9076 87.8066 84.4707 86.8535C84.0339 85.9004 83.8353 84.9075 83.875 83.875C83.875 82.8027 84.0736 81.8099 84.4707 80.8965C84.8678 79.9831 85.404 79.1888 86.0791 78.5137C86.7542 77.8385 87.5684 77.2825 88.5215 76.8457C89.4746 76.4089 90.4674 76.2103 91.5 76.25C92.5723 76.25 93.5651 76.4486 94.4785 76.8457C95.3919 77.2428 96.1862 77.779 96.8613 78.4541C97.5365 79.1292 98.0924 79.9434 98.5293 80.8965C98.9661 81.8496 99.1647 82.8424 99.125 83.875C99.125 84.9473 98.9264 85.9401 98.5293 86.8535C98.1322 87.7669 97.596 88.5612 96.9209 89.2363C96.2458 89.9115 95.4316 90.4674 94.4785 90.9043C93.5254 91.3411 92.5326 91.5397 91.5 91.5ZM53.375 30.5H69.2803C70.3128 30.5 71.2064 30.8773 71.9609 31.6318L86.0791 45.75H53.375V30.5ZM45.75 45.75H18.4072L24.3047 32.7041C24.6224 32.029 25.099 31.4928 25.7344 31.0957C26.3698 30.6986 27.0648 30.5 27.8193 30.5H45.75V45.75ZM22.875 91.5C21.8027 91.5 20.8099 91.3014 19.8965 90.9043C18.9831 90.5072 18.1888 89.971 17.5137 89.2959C16.8385 88.6208 16.2826 87.8066 15.8457 86.8535C15.4089 85.9004 15.2103 84.9075 15.25 83.875C15.25 82.8027 15.4486 81.8099 15.8457 80.8965C16.2428 79.9831 16.779 79.1888 17.4541 78.5137C18.1292 77.8385 18.9434 77.2825 19.8965 76.8457C20.8496 76.4089 21.8424 76.2103 22.875 76.25C23.9473 76.25 24.9401 76.4486 25.8535 76.8457C26.7669 77.2428 27.5612 77.779 28.2363 78.4541C28.9115 79.1292 29.4674 79.9434 29.9043 80.8965C30.3411 81.8496 30.5397 82.8424 30.5 83.875C30.5 84.9473 30.3014 85.9401 29.9043 86.8535C29.5072 87.7669 28.971 88.5612 28.2959 89.2363C27.6208 89.9115 26.8066 90.4674 25.8535 90.9043C24.9004 91.3411 23.9076 91.5397 22.875 91.5Z" fill="#0074AE"/>
</g>
<defs>
<clipPath id="clip0_87_717">
<rect width="122" height="122" fill="white"/>
</clipPath>
</defs>
</svg>
