<svg width="122" height="122" viewBox="0 0 122 122" fill="none" xmlns="http://www.w3.org/2000/svg">
<path d="M85.2023 53.3608C87.7072 53.3676 90.1886 52.8775 92.5028 51.9188C94.8171 50.9601 96.9181 49.5518 98.6843 47.7754L117.032 29.4397C118.483 27.9886 118.616 25.6272 117.234 24.1046C116.888 23.722 116.466 23.414 115.997 23.1991C115.527 22.9842 115.019 22.867 114.503 22.8545C113.986 22.842 113.473 22.9345 112.993 23.1265C112.514 23.3185 112.079 23.6058 111.713 23.9711L95.3602 40.3125C94.8111 40.8609 94.0668 41.1689 93.2908 41.1689C92.5147 41.1689 91.7704 40.8609 91.2213 40.3125C90.0799 39.1735 90.1419 37.2482 91.2809 36.1092L107.563 19.8274C107.928 19.4624 108.215 19.0272 108.406 18.5479C108.598 18.0687 108.691 17.5556 108.678 17.0396C108.666 16.5236 108.548 16.0155 108.334 15.5461C108.119 15.0767 107.811 14.6558 107.429 14.3088C106.739 13.683 105.84 13.3387 104.908 13.3438C104.385 13.344 103.868 13.4473 103.385 13.6476C102.902 13.8479 102.463 14.1415 102.094 14.5114L85.8266 30.7765C85.2775 31.3249 84.5332 31.6329 83.7571 31.6329C82.9811 31.6329 82.2368 31.3249 81.6877 30.7765C80.5487 29.6375 80.6082 27.7122 81.7472 26.5732L98.029 10.2962C98.3939 9.9312 98.681 9.4959 98.8727 9.01669C99.0645 8.53747 99.1569 8.02431 99.1444 7.50831C99.1319 6.99231 99.0148 6.48422 98.8001 6.01482C98.5855 5.54543 98.2777 5.12452 97.8955 4.7776C97.2056 4.15178 96.306 3.80743 95.3745 3.81256C94.3189 3.81381 93.3069 4.2337 92.5604 4.98013L74.2247 23.3159C72.4483 25.0825 71.04 27.1839 70.0812 29.4985C69.1225 31.8131 68.6324 34.2949 68.6394 36.8002V38.7613C68.6398 39.2626 68.5413 39.7592 68.3495 40.2224C68.1577 40.6857 67.8765 41.1066 67.5218 41.461L59.0366 49.9486C58.9481 50.0372 58.843 50.1075 58.7273 50.1555C58.6116 50.2034 58.4876 50.2281 58.3623 50.2281C58.237 50.2281 58.113 50.2034 57.9973 50.1555C57.8816 50.1075 57.7765 50.0372 57.688 49.9486L16.3986 8.65681C15.686 7.94338 14.7197 7.54132 13.7114 7.53864C12.703 7.53596 11.7346 7.93288 11.0182 8.64252C7.40825 12.2191 5.48055 17.2683 5.48055 23.242C5.45672 33.1069 10.6417 44.449 19.0125 52.8079L39.3737 73.1691C42.2677 76.0569 46.189 77.6791 50.2774 77.6797C51.5808 77.6803 52.8789 77.5137 54.14 77.1841C54.4566 77.1011 54.7825 77.0586 55.1098 77.0578C56.0669 77.058 56.9886 77.4197 57.6904 78.0705L60.4044 80.5772C61.1044 81.2924 61.4976 82.2525 61.5005 83.2531V84.5732C61.4935 87.5742 62.6729 90.4562 64.7816 92.5914L86.2388 114.411L86.2603 114.435C88.6418 116.816 91.8718 118.153 95.2396 118.153C98.6073 118.153 101.837 116.815 104.218 114.433C106.6 112.052 107.937 108.822 107.937 105.454C107.937 102.086 106.599 98.8566 104.217 96.4754L72.054 64.3122C71.9653 64.2236 71.895 64.1185 71.8471 64.0028C71.7991 63.8871 71.7744 63.7631 71.7744 63.6378C71.7744 63.5126 71.7991 63.3885 71.8471 63.2728C71.895 63.1571 71.9653 63.052 72.054 62.9635L80.5391 54.4783C80.8933 54.1239 81.3138 53.8428 81.7766 53.6511C82.2394 53.4593 82.7355 53.3607 83.2365 53.3608H85.2023Z" fill="#0074AE"/>
<path d="M50.2776 85.3049C44.1737 85.2923 38.3208 82.8736 33.9887 78.5735L30.6861 75.2709C30.3288 74.9144 29.8446 74.7142 29.3399 74.7142C28.8351 74.7142 28.3509 74.9144 27.9936 75.2709L7.73966 95.42C4.1297 99.0299 2.8406 104.344 4.62771 109.548C4.72795 109.841 4.84653 110.127 4.98275 110.405C7.387 115.328 12.0526 118.188 17.1565 118.188C18.9118 118.192 20.6505 117.848 22.2718 117.176C23.8932 116.503 25.365 115.516 26.602 114.27L53.6136 87.1302C53.7273 87.0141 53.8143 86.8747 53.8686 86.7216C53.9229 86.5686 53.9432 86.4055 53.9281 86.2437V86.1818C53.9175 86.0332 53.8769 85.8883 53.8088 85.7558C53.7407 85.6234 53.6465 85.5061 53.5318 85.411C53.4172 85.3159 53.2844 85.245 53.1416 85.2026C52.9988 85.1603 52.8489 85.1472 52.7009 85.1643C51.8962 85.2536 51.0873 85.3005 50.2776 85.3049Z" fill="#0074AE"/>
</svg>
