<svg width="122" height="122" viewBox="0 0 122 122" fill="none" xmlns="http://www.w3.org/2000/svg">
<path fill-rule="evenodd" clip-rule="evenodd" d="M73.7083 15.25V20.3333C73.7083 23.6527 75.8306 26.4791 78.7917 27.5262V30.5H76.25C75.5759 30.5 74.9294 30.7678 74.4528 31.2444C73.9761 31.7211 73.7083 32.3676 73.7083 33.0417V48.2917C73.7083 48.9658 73.9761 49.6122 74.4528 50.0889C74.9294 50.5656 75.5759 50.8333 76.25 50.8333H86.4167C87.0908 50.8333 87.7372 50.5656 88.2139 50.0889C88.6906 49.6122 88.9583 48.9658 88.9583 48.2917V33.0417C88.9583 32.3676 88.6906 31.7211 88.2139 31.2444C87.7372 30.7678 87.0908 30.5 86.4167 30.5H83.875V27.9583H96.5833V58.6261H51.1129C51.0099 58.6274 50.9077 58.6078 50.8125 58.5684C50.7172 58.5291 50.6309 58.4709 50.5588 58.3973L49.6286 57.4569L50.5665 56.5241C51.4569 55.6344 52.1634 54.578 52.6455 53.4152C53.1276 52.2524 53.3758 51.0061 53.3761 49.7473C53.3763 48.4885 53.1285 47.2421 52.6469 46.0791C52.1652 44.9161 51.4592 43.8594 50.569 42.9694L45.994 38.3944C45.1047 37.5036 44.0485 36.7967 42.8859 36.3142C41.7233 35.8317 40.477 35.583 39.2182 35.5823C37.9595 35.5816 36.7129 35.8289 35.5497 36.3101C34.3866 36.7913 33.3296 37.497 32.4393 38.3868L30.65 40.1761C28.9198 39.6826 27.0889 39.6631 25.3487 40.1197C23.6084 40.5762 22.0229 41.4919 20.7578 42.7712C18.8574 44.6909 17.7913 47.2831 17.7913 49.9844C17.7913 52.6857 18.8574 55.2779 20.7578 57.1977L22.875 59.3301V86.4167H15.25V91.5H23.0021C21.7398 92.7368 20.8745 94.3214 20.5165 96.052C20.1585 97.7825 20.324 99.5804 20.992 101.216C21.6599 102.853 22.8 104.253 24.2668 105.238C25.7336 106.224 27.4607 106.75 29.2279 106.75C30.9951 106.75 32.7222 106.224 34.189 105.238C35.6558 104.253 36.7959 102.853 37.4638 101.216C38.1318 99.5804 38.2973 97.7825 37.9393 96.052C37.5813 94.3214 36.716 92.7368 35.4537 91.5H86.5463C85.284 92.7368 84.4187 94.3214 84.0607 96.052C83.7027 97.7825 83.8682 99.5804 84.5362 101.216C85.2041 102.853 86.3442 104.253 87.811 105.238C89.2778 106.224 91.0049 106.75 92.7721 106.75C94.5393 106.75 96.2664 106.224 97.7332 105.238C99.2 104.253 100.34 102.853 101.008 101.216C101.676 99.5804 101.841 97.7825 101.483 96.052C101.125 94.3214 100.26 92.7368 98.9979 91.5H106.75V86.4167H96.5833V78.7917H96.7511C102.277 78.7917 106.75 74.2777 106.75 68.7089C106.754 66.9266 106.285 65.1752 105.392 63.6327C104.5 62.0903 103.214 60.8118 101.667 59.9274V27.9583C101.667 26.6101 101.131 25.3172 100.178 24.3639C99.2245 23.4106 97.9315 22.875 96.5833 22.875H81.3333C80.6592 22.875 80.0128 22.6072 79.5361 22.1306C79.0594 21.6539 78.7917 21.0074 78.7917 20.3333V15.25H73.7083ZM35.1411 42.8728L46.0448 53.8528L46.9725 52.9277C47.3906 52.5099 47.7223 52.0138 47.9485 51.4678C48.1748 50.9218 48.2913 50.3365 48.2913 49.7455C48.2913 49.1545 48.1748 48.5692 47.9485 48.0232C47.7223 47.4772 47.3906 46.9811 46.9725 46.5633L42.3975 41.9883C41.9801 41.5699 41.4843 41.2379 40.9385 41.0112C40.3926 40.7845 39.8075 40.6675 39.2164 40.6671C38.6254 40.6666 38.0401 40.7826 37.4939 41.0084C36.9477 41.2343 36.4513 41.5655 36.0332 41.9832L35.1411 42.8728ZM91.5 86.4167H27.9583V64.4465L41.3656 77.9453C41.9045 78.4867 42.6314 78.7917 43.3913 78.7917H91.5V86.4167Z" fill="#0074AE"/>
</svg>
