<svg width="153" height="122" viewBox="0 0 153 122" fill="none" xmlns="http://www.w3.org/2000/svg">
<g clip-path="url(#clip0_87_721)">
<path d="M95.3125 0C96.5039 0 97.6477 0.571875 98.3625 1.525C106.631 12.5574 116.972 19.3723 130.173 28.0934C131.412 28.9035 132.675 29.7613 133.986 30.6191C140.872 35.1941 144.875 42.9383 144.875 51.1352C144.875 57.95 142.182 64.1215 137.774 68.625H52.8508C48.4664 64.0977 45.75 57.9262 45.75 51.1352C45.75 42.9383 49.7293 35.1941 56.6395 30.6191C57.9262 29.7613 59.2129 28.9273 60.452 28.0934C73.6527 19.3723 83.9941 12.5574 92.2625 1.525C92.9773 0.571875 94.1211 0 95.3125 0ZM68.625 122V104.844C68.625 101.675 66.0754 99.125 62.9062 99.125C59.7371 99.125 57.1875 101.675 57.1875 104.844V122H45.75C41.5324 122 38.125 118.593 38.125 114.375V83.875C38.125 79.6574 41.5324 76.25 45.75 76.25H144.875C149.093 76.25 152.5 79.6574 152.5 83.875V114.375C152.5 118.593 149.093 122 144.875 122H133.438V104.844C133.438 101.675 130.888 99.125 127.719 99.125C124.55 99.125 122 101.675 122 104.844V122H106.75V108.18C106.75 103.652 104.748 99.3633 101.27 96.4562L95.3125 91.5L89.3555 96.4562C85.8766 99.3633 83.875 103.652 83.875 108.18V122H68.625ZM16.775 1.23906C17.4334 0.740417 18.2366 0.470553 19.0625 0.470553C19.8884 0.470553 20.6916 0.740417 21.35 1.23906L25.1625 4.09844C33.3117 10.2223 38.125 19.825 38.125 30.0234V30.5H0V30.0234C0 19.825 4.81328 10.2223 12.9625 4.09844L16.775 1.23906ZM0 38.125H38.125V70.6742C33.5738 73.3191 30.5 78.2277 30.5 83.875V114.375C30.5 116.663 31.0004 118.807 31.882 120.761C30.3094 121.571 28.5461 122 26.6875 122H11.4375C5.12305 122 0 116.877 0 110.562V38.125Z" fill="#0074AE"/>
</g>
<defs>
<clipPath id="clip0_87_721">
<rect width="152.5" height="122" fill="white"/>
</clipPath>
</defs>
</svg>
