<svg width="149" height="149" viewBox="0 0 149 149" fill="none" xmlns="http://www.w3.org/2000/svg">
<path d="M128.07 99.3265C127.587 98.7445 127.113 98.1625 126.647 97.6008C120.245 89.8569 116.371 85.1832 116.371 63.261C116.371 51.9114 113.656 42.5989 108.304 35.6145C104.358 30.4548 99.0238 26.5406 91.9929 23.6479C91.9024 23.5976 91.8216 23.5316 91.7542 23.4529C89.2253 14.9844 82.3049 9.3125 74.4999 9.3125C66.6949 9.3125 59.7774 14.9844 57.2485 23.4442C57.1811 23.5201 57.1014 23.584 57.0128 23.6334C40.6053 30.3879 32.6315 43.3468 32.6315 63.2522C32.6315 85.1832 28.7639 89.8569 22.3557 97.5921C21.8901 98.1538 21.4158 98.7241 20.9327 99.3178C19.6848 100.823 18.8942 102.654 18.6543 104.594C18.4145 106.534 18.7356 108.502 19.5794 110.266C21.375 114.049 25.2019 116.398 29.57 116.398H119.462C123.81 116.398 127.61 114.052 129.412 110.286C130.259 108.522 130.583 106.552 130.345 104.61C130.108 102.667 129.318 100.834 128.07 99.3265ZM74.4999 139.688C78.7052 139.684 82.8311 138.543 86.4402 136.384C90.0492 134.225 93.0067 131.13 94.999 127.427C95.0929 127.25 95.1393 127.051 95.1336 126.85C95.128 126.649 95.0705 126.454 94.9668 126.282C94.8632 126.11 94.7168 125.968 94.5419 125.869C94.367 125.77 94.1696 125.719 93.9689 125.719H55.0368C54.8358 125.718 54.638 125.769 54.4627 125.868C54.2874 125.966 54.1407 126.108 54.0366 126.28C53.9326 126.452 53.8749 126.648 53.8691 126.849C53.8633 127.05 53.9097 127.249 54.0037 127.427C55.9958 131.13 58.9528 134.225 62.5613 136.383C66.1698 138.542 70.2951 139.684 74.4999 139.688Z" fill="white"/>
</svg>
