<svg width="117" height="118" viewBox="0 0 117 118" fill="none" xmlns="http://www.w3.org/2000/svg">
<path d="M87.7501 29.75H87.794M91.2552 52.7356C90.3096 53.6326 89.0559 54.1327 87.7525 54.1327C86.4492 54.1327 85.1954 53.6326 84.2498 52.7356C75.6455 44.531 64.1161 35.3611 69.737 22.0524C72.779 14.8569 80.072 10.25 87.7501 10.25C95.4282 10.25 102.726 14.8569 105.763 22.0475C111.379 35.3465 99.884 44.5554 91.2552 52.7356Z" stroke="#0074AE" stroke-width="7.3125" stroke-linecap="round" stroke-linejoin="round"/>
<path d="M24.3754 107.75C32.4525 107.75 39.0004 101.202 39.0004 93.125C39.0004 85.0479 32.4525 78.5 24.3754 78.5C16.2982 78.5 9.75037 85.0479 9.75037 93.125C9.75037 101.202 16.2982 107.75 24.3754 107.75Z" stroke="#0074AE" stroke-width="7.3125" stroke-linecap="round" stroke-linejoin="round"/>
<path d="M53.6249 34.625H46.3124C36.889 34.625 29.2499 41.1721 29.2499 49.25C29.2499 57.3279 36.889 63.875 46.3124 63.875H60.9374C70.3607 63.875 77.9999 70.4221 77.9999 78.5C77.9999 86.5779 70.3607 93.125 60.9374 93.125H53.6249" stroke="#0074AE" stroke-width="7.3125" stroke-linecap="round" stroke-linejoin="round"/>
</svg>
