<svg width="120" height="120" viewBox="0 0 120 120" fill="none" xmlns="http://www.w3.org/2000/svg">
<path d="M105 105L83.2853 83.2849M83.2853 83.2849C86.9997 79.5705 89.9462 75.1608 91.9564 70.3077C93.9667 65.4545 95.0013 60.2529 95.0013 54.9999C95.0013 49.7469 93.9667 44.5453 91.9564 39.6922C89.9462 34.8391 86.9997 30.4294 83.2853 26.7149C79.5709 23.0005 75.1612 20.054 70.308 18.0438C65.4549 16.0336 60.2533 14.9989 55.0003 14.9989C49.7473 14.9989 44.5457 16.0336 39.6926 18.0438C34.8394 20.054 30.4297 23.0005 26.7153 26.7149C19.2136 34.2166 14.9993 44.391 14.9993 54.9999C14.9993 65.6089 19.2136 75.7833 26.7153 83.2849C34.2169 90.7866 44.3914 95.001 55.0003 95.001C65.6092 95.001 75.7836 90.7866 83.2853 83.2849Z" stroke="#868686" stroke-width="12.5" stroke-linecap="round" stroke-linejoin="round"/>
</svg>
