<svg width="142" height="142" viewBox="0 0 142 142" fill="none" xmlns="http://www.w3.org/2000/svg">
<path d="M71.0005 102.211L46.4464 117.003C45.3617 117.693 44.2276 117.989 43.0443 117.89C41.861 117.792 40.8255 117.397 39.938 116.707C39.0505 116.017 38.3603 115.155 37.8672 114.121C37.3742 113.088 37.2755 111.928 37.5714 110.642L44.0797 82.686L22.336 63.9006C21.3498 63.0131 20.7345 62.0014 20.49 60.8654C20.2454 59.7294 20.3184 58.621 20.7089 57.5402C21.0994 56.4594 21.691 55.5719 22.4839 54.8777C23.2767 54.1835 24.3614 53.7397 25.738 53.5464L54.4339 51.0319L65.5276 24.7027C66.0207 23.5194 66.7859 22.6319 67.8233 22.0402C68.8607 21.4485 69.9198 21.1527 71.0005 21.1527C72.0813 21.1527 73.1404 21.4485 74.1778 22.0402C75.2152 22.6319 75.9804 23.5194 76.4735 24.7027L87.5672 51.0319L116.263 53.5464C117.644 53.7437 118.728 54.1874 119.517 54.8777C120.306 55.568 120.898 56.4555 121.292 57.5402C121.687 58.6249 121.762 59.7353 121.517 60.8713C121.272 62.0073 120.655 63.0171 119.665 63.9006L97.9214 82.686L104.43 110.642C104.726 111.924 104.627 113.084 104.134 114.121C103.641 115.159 102.951 116.021 102.063 116.707C101.176 117.393 100.14 117.788 98.9568 117.89C97.7735 117.993 96.6394 117.697 95.5547 117.003L71.0005 102.211Z" fill="#FFD20A"/>
</svg>
