<svg width="133" height="133" viewBox="0 0 133 133" fill="none" xmlns="http://www.w3.org/2000/svg">
<path d="M49.0436 86.7271L98.3644 73.7041C99.7498 73.3347 100.79 72.4813 101.484 71.1439C102.179 69.8065 102.34 68.4433 101.966 67.0541C101.593 65.665 100.786 64.6269 99.5448 63.9397C98.3034 63.2526 96.9864 63.09 95.5936 63.4521L82.0165 67.0541L59.8498 46.2729L52.0915 48.2125L65.3915 71.4875L52.0915 74.8125L45.1644 69.5479L39.8998 70.9333L49.0436 86.7271ZM110.833 110.833H22.1665C19.1185 110.833 16.5103 109.749 14.3416 107.58C12.173 105.412 11.0868 102.802 11.0831 99.75V77.5833C14.131 77.5833 16.7412 76.499 18.9135 74.3304C21.0858 72.1617 22.1702 69.5516 22.1665 66.5C22.1628 63.4484 21.0785 60.8401 18.9135 58.6751C16.7486 56.5102 14.1384 55.424 11.0831 55.4166V33.25C11.0831 30.2021 12.1693 27.5938 14.3416 25.4251C16.514 23.2565 19.1222 22.1703 22.1665 22.1666H110.833C113.881 22.1666 116.491 23.2528 118.664 25.4251C120.836 27.5975 121.92 30.2058 121.916 33.25V99.75C121.916 102.798 120.832 105.408 118.664 107.58C116.495 109.753 113.885 110.837 110.833 110.833Z" fill="white"/>
</svg>
